<?xml version="1.0" encoding="utf-8"?>
<!-- Generator: Adobe Illustrator 28.0.0, SVG Export Plug-In . SVG Version: 6.00 Build 0)  -->
<svg version="1.1" id="Layer_1" xmlns="http://www.w3.org/2000/svg" xmlns:xlink="http://www.w3.org/1999/xlink" x="0px" y="0px"
	 viewBox="0 0 600 400" style="enable-background:new 0 0 600 400;" xml:space="preserve">
<style type="text/css">
	.st0{fill:#CCFFCC;stroke:#B3B3B3;stroke-width:3;}
	.st1{fill:#B3B3B3;stroke:#B3B3B3;stroke-width:2;}
	.st2{fill:#B3B3B3;stroke:#B3B3B3;stroke-width:2.2;stroke-linejoin:round;stroke-miterlimit:8.8;}
	.st3{fill:#B3B3B3;stroke:#B3B3B3;stroke-linejoin:round;}
	.st4{fill:none;stroke:#B3B3B3;stroke-width:3;}
	.st5{fill:#B3B3B3;}
	.st6{font-family:'TimesNewRomanPSMT';}
	.st7{font-size:21px;}
</style>
<g>
	<circle class="st0" cx="120" cy="150" r="20"/>
</g>
<g>
	<path class="st1" d="M140,150"/>
	<path class="st1" d="M140,150l140-30"/>
	<path class="st1" d="M280,120"/>
	<path class="st1" d="M140,150"/>
	<path class="st1" d="M140,150"/>
	<path class="st1" d="M140,150"/>
	<path class="st1" d="M320,120"/>
	<path class="st1" d="M0,0"/>
	<path class="st2" d="M58.62,141.13l24.04,8.84l-24.04,8.84C62.46,153.59,62.44,146.45,58.62,141.13z"/>
	<path marker-end="url(#a)" class="st3" d="M80,150"/>
	<path class="st3" d="M0,0"/>
	<path marker-end="url(#a)" class="st3" d="M565,200"/>
	<path class="st3" d="M0,0"/>
	<path class="st2" d="M275.61,112.03l25.41,3.21l-21.44,14.02C282.15,123.3,280.53,116.35,275.61,112.03z"/>
</g>
<line class="st4" x1="17.37" y1="149.96" x2="72.73" y2="150"/>
<path class="st4" d="M17.37,249.95"/>
<text transform="matrix(1 0 0 1 23.5645 119.4351)" class="st5 st6 st7">Input</text>
<text transform="matrix(1 0 0 1 172.3911 117.0864)" class="st5 st6 st7">Output</text>
</svg>
